<svg width="110" height="33" viewBox="0 0 110 33" fill="none" xmlns="http://www.w3.org/2000/svg">
<path d="M14.036 0.376371H0.110265V13.6058H2.51904V9.10817H12.9069V6.96285H2.51904V2.52168H14.036V0.376371Z" fill="white"/>
<path d="M30.3516 7.82851C31.7066 7.26395 32.5158 6.17248 32.5158 4.3659C32.5158 1.5243 30.4834 0.376371 27.3971 0.376371H17.5174V13.6058H19.9262V9.1458H28.1122C29.6177 9.1458 29.9564 9.48454 29.9564 10.8207V13.6058H32.3464V10.2373C32.3464 8.88234 31.6501 8.03551 30.3516 7.82851ZM26.7761 2.50286C28.1499 2.50286 29.9376 2.50286 29.9376 4.76109C29.9376 7.03813 28.1499 7.03813 26.7761 7.03813H19.9262V2.50286H26.7761Z" fill="white"/>
<path d="M50.2653 0.376371H36.3396V13.6058H50.2653V11.5169H38.7484V8.03551H49.8889V5.94665H38.7484V2.48405H50.2653V0.376371Z" fill="white"/>
<path d="M68.0063 11.3099L57.3927 0.376371H53.9489V13.6058H56.3577V2.67223L66.9713 13.6058H70.4151V0.376371H68.0063V11.3099Z" fill="white"/>
<path d="M73.8693 6.98167C73.8693 11.2535 76.6356 13.9822 82.3565 13.9822C87.381 13.9822 89.9592 11.6863 90.3732 8.78825H87.7574C87.3998 10.6701 85.5556 11.8369 82.3565 11.8369C78.7057 11.8369 76.4663 10.4066 76.4663 6.98167C76.4663 3.5567 78.6869 2.14531 82.3565 2.14531C85.5744 2.14531 87.3998 3.27442 87.7574 5.15628H90.3543C89.9592 2.27704 87.381 0 82.3565 0C76.6356 0 73.8693 2.70987 73.8693 6.98167Z" fill="white"/>
<path d="M107.591 5.92783H96.2625V0.376371H93.8537V13.6058H96.2625V8.07315H107.591V13.6058H110V0.376371H107.591V5.92783Z" fill="white"/>
<path d="M14.0763 25.5932C15.036 24.8593 15.5441 23.7866 15.5441 22.5446C15.5441 20.8133 14.6032 19.1949 11.5358 19.1949H0V32.4243H11.6298C14.6596 32.4243 15.9581 30.9377 15.9581 28.6982C15.9581 27.1739 15.1865 26.1766 14.0763 25.5932ZM10.6889 21.2649C12.0439 21.2649 12.9848 21.2649 12.9848 23.0151C12.9848 24.7464 12.0439 24.7464 10.6889 24.7464H2.40877V21.2649H10.6889ZM2.40877 30.3543V26.7411H11.1029C12.439 26.7411 13.38 26.7411 13.38 28.5477C13.38 30.3543 12.439 30.3543 11.1029 30.3543H2.40877Z" fill="white"/>
<path d="M36.3025 32.4243L28.6434 19.1949H25.5948L17.9357 32.4243H20.6832L22.3204 29.5639H31.9367L33.5739 32.4243H36.3025ZM27.1191 21.1897L30.7323 27.4939H23.506L27.1191 21.1897Z" fill="white"/>
<path d="M52.0958 26.647C53.4508 26.0825 54.26 24.991 54.26 23.1844C54.26 20.3428 52.2276 19.1949 49.1413 19.1949H39.2616V32.4243H41.6704V27.9643H49.8564C51.3619 27.9643 51.7007 28.3031 51.7007 29.6392V32.4243H54.0906V29.0558C54.0906 27.7009 53.3943 26.854 52.0958 26.647ZM48.5203 21.3214C49.8941 21.3214 51.6818 21.3214 51.6818 23.5796C51.6818 25.8567 49.8941 25.8566 48.5203 25.8566H41.6704V21.3214H48.5203Z" fill="white"/>
<path d="M72.1601 25.5932C73.1198 24.8593 73.6279 23.7866 73.6279 22.5446C73.6279 20.8133 72.687 19.1949 69.6196 19.1949H58.0838V32.4243H69.7137C72.7434 32.4243 74.0419 30.9377 74.0419 28.6982C74.0419 27.1739 73.2704 26.1766 72.1601 25.5932ZM68.7727 21.2649C70.1277 21.2649 71.0686 21.2649 71.0686 23.0151C71.0686 24.7464 70.1277 24.7464 68.7727 24.7464H60.4926V21.2649H68.7727ZM60.4926 30.3543V26.7411H69.1867C70.5229 26.7411 71.4638 26.7411 71.4638 28.5477C71.4638 30.3543 70.5229 30.3543 69.1867 30.3543H60.4926Z" fill="white"/>
<path d="M91.2544 19.1949H77.3287V32.4243H91.2544V30.3355H79.7375V26.854H90.878V24.7652H79.7375V21.3026H91.2544V19.1949Z" fill="white"/>
<path d="M107.772 26.647C109.127 26.0825 109.936 24.991 109.936 23.1844C109.936 20.3428 107.904 19.1949 104.818 19.1949H94.938V32.4243H97.3467V27.9643H105.533C107.038 27.9643 107.377 28.3031 107.377 29.6392V32.4243H109.767V29.0558C109.767 27.7009 109.071 26.854 107.772 26.647ZM104.197 21.3214C105.57 21.3214 107.358 21.3214 107.358 23.5796C107.358 25.8567 105.57 25.8566 104.197 25.8566H97.3467V21.3214H104.197Z" fill="white"/>
</svg>
